<svg xmlns="http://www.w3.org/2000/svg" viewBox="0 0 316 118.28"><defs><style>.cls-1{fill:#e6e6e6;}.cls-2{fill:#8cc63f;}</style></defs><g id="Layer_2" data-name="Layer 2"><g id="Capa_1" data-name="Capa 1"><path class="cls-1" d="M161.89,102.29h1.21l.12,1.1h.05a4.58,4.58,0,0,1,3-1.31c2.32,0,3.56,1.71,3.56,4.39,0,2.91-1.84,4.63-3.91,4.63a4,4,0,0,1-2.56-1.12h0l.07,1.63v2.9h-1.47Zm6.41,4.18c0-1.9-.71-3.15-2.43-3.15a3.67,3.67,0,0,0-2.51,1.27v4.28a3.57,3.57,0,0,0,2.28,1C167.16,109.86,168.3,108.59,168.3,106.47Z"/><path class="cls-1" d="M173.42,102.29h1.22l.14,2h0a4.54,4.54,0,0,1,3.84-2.24,3.66,3.66,0,0,1,1.69.35l-.33,1.26a4.19,4.19,0,0,0-1.59-.28c-1.29,0-2.51.65-3.54,2.45v5h-1.47Z"/><path class="cls-1" d="M182.53,106.61a4.25,4.25,0,1,1,4.24,4.49A4.21,4.21,0,0,1,182.53,106.61Zm7,0c0-2-1.1-3.31-2.75-3.31s-2.74,1.33-2.74,3.31,1.1,3.27,2.74,3.27S189.52,108.57,189.52,106.61Z"/><path class="cls-1" d="M193.14,106.61c0-2.8,1.86-4.53,3.89-4.53a3.68,3.68,0,0,1,2.58,1.1h0l-.07-1.58V98.29H201v12.6h-1.2l-.12-1.14h-.05a4.14,4.14,0,0,1-2.82,1.35C194.62,111.1,193.14,109.47,193.14,106.61Zm6.44,2v-4.28a3.18,3.18,0,0,0-2.25-1c-1.48,0-2.69,1.31-2.69,3.27s1,3.27,2.53,3.27A3.24,3.24,0,0,0,199.58,108.59Z"/><path class="cls-1" d="M204.05,107.63v-5.34h1.47v5.15c0,1.61.56,2.38,2,2.38,1,0,1.71-.45,2.67-1.57v-6h1.47v8.6h-1.22l-.13-1.51h-.07a4.18,4.18,0,0,1-3.2,1.72C205,111.1,204.05,109.9,204.05,107.63Z"/><path class="cls-1" d="M214.71,106.61c0-2.89,2.2-4.53,4.8-4.53a4.42,4.42,0,0,1,3.13,1.25l-.73.94a3.55,3.55,0,0,0-2.35-1,3.16,3.16,0,0,0-3.34,3.31,3.12,3.12,0,0,0,3.3,3.27,4.12,4.12,0,0,0,2.66-1.08l.65,1a5.11,5.11,0,0,1-3.41,1.35C216.73,111.1,214.71,109.45,214.71,106.61Z"/><path class="cls-1" d="M225.32,106.61c0-2.89,2.2-4.53,4.8-4.53a4.42,4.42,0,0,1,3.13,1.25l-.73.94a3.55,3.55,0,0,0-2.35-1,3.16,3.16,0,0,0-3.34,3.31,3.12,3.12,0,0,0,3.3,3.27,4.12,4.12,0,0,0,2.66-1.08l.65,1A5.11,5.11,0,0,1,230,111.1C227.34,111.1,225.32,109.45,225.32,106.61Z"/><path class="cls-1" d="M240.09,103.48h-4v-1.19h5.45v8.6h-1.47Zm-.58-4.12a1.17,1.17,0,1,1,1.16,1.13A1.09,1.09,0,0,1,239.51,99.36Z"/><path class="cls-1" d="M246.19,106.61a4.25,4.25,0,1,1,4.24,4.49A4.21,4.21,0,0,1,246.19,106.61Zm7,0c0-2-1.09-3.31-2.74-3.31s-2.74,1.33-2.74,3.31,1.1,3.27,2.74,3.27S253.17,108.57,253.17,106.61Z"/><path class="cls-1" d="M257.38,102.29h1.2l.13,1.45h.07a4.44,4.44,0,0,1,3.24-1.66c2,0,3,1.2,3,3.47v5.34h-1.47v-5.15c0-1.63-.57-2.39-2-2.39-1,0-1.72.52-2.71,1.54v6h-1.47Z"/><path class="cls-1" d="M267.55,106.57a4.32,4.32,0,0,1,4.39-4.49,3.7,3.7,0,0,1,3.92,4,5.44,5.44,0,0,1-.07.89h-7.27v-1.14h6.4l-.37.41c0-2-1-3-2.58-3a3,3,0,0,0-3,3.34,3.12,3.12,0,0,0,3.36,3.36,4.72,4.72,0,0,0,2.62-.81l.53.95a5.88,5.88,0,0,1-3.33,1A4.35,4.35,0,0,1,267.55,106.57Z"/><path class="cls-1" d="M278.21,109.75l.68-1a6.1,6.1,0,0,0,3.73,1.17c1.45,0,2.15-.6,2.15-1.33s-.33-1.11-2.67-1.59-3.36-1.22-3.36-2.51,1.22-2.44,3.58-2.44a6.4,6.4,0,0,1,3.46,1.1l-.71.93a5,5,0,0,0-2.88-.9c-1.45,0-2,.58-2,1.24s.74,1.06,2.51,1.43c2.85.62,3.54,1.33,3.54,2.65s-1.36,2.57-3.82,2.57A7.55,7.55,0,0,1,278.21,109.75Z"/><path class="cls-1" d="M150.55,41.44H134V8.35h11v5.51H167.1v11Zm-4.57-11,5.51-5.52H145v5.52Z"/><path class="cls-1" d="M183.64,41.44h-11V8.35h11Z"/><path class="cls-1" d="M211.22,8.35l11,11V41.44H200.19l-11-11V8.35Zm0,22.06V24l-4.58-4.57h-6.45v6.45l4.58,4.58Z"/><path class="cls-1" d="M260.85,8.35V41.44h-11V19.38h-.94L238.79,29.47v12h-11V8.35h11v5.51l5.52-5.51Z"/><path class="cls-1" d="M277.4,41.44h-11V8.35h11Z"/><path class="cls-1" d="M293.94,19.38v9.7l1.32,1.33H316v11H290.69l-7.78-7.78V8.35H316v11Z"/><path class="cls-1" d="M164.34,85.55h-11V52.46h11Z"/><path class="cls-1" d="M203,52.46V85.55h-11V63.49H191l-10.09,10.1v12h-11V52.46h11V58l5.51-5.52Z"/><path class="cls-1" d="M225,58h5.52V52.46h11V85.55H208.46v-11Zm5.52,16.54V69h-.94l-5.51,5.51Z"/><path class="cls-1" d="M258.09,85.55h-11V52.46h11Z"/><path class="cls-1" d="M296.7,85.55H263.61V52.46h22.06l11,11-11,11h11ZM274.64,63.49V70l6.45-6.46Z"/><path class="cls-1" d="M103.53,64.86c-7.07,0-52.58,10.67-55.1,11.25L68.32,29.78a2.71,2.71,0,0,0,1.08.36l14,1.74a3.37,3.37,0,0,0,.71,0l4.29-.47a7.66,7.66,0,0,0,7.18,5,8.06,8.06,0,0,0,1.88-.23l2.44-.63a3.92,3.92,0,0,0,2.91-4.19s0-.06,0-.1l-.75-5a6.21,6.21,0,0,0,.38-2.73L101.2,6a6.53,6.53,0,0,0-6.48-6H78.87A45.66,45.66,0,0,0,64.81,2.21a17.67,17.67,0,0,0-8.67,6.12l-44.95,59a15.87,15.87,0,0,0,4.68,31,15.38,15.38,0,0,0,2.81-.26l19.61,17a3,3,0,0,0,2,.74H92.49a26.71,26.71,0,1,0,11-51ZM98.26,30.13l.2,1.34-2,.52a3.27,3.27,0,0,1-3.35-1.09l3.61-.39a6.61,6.61,0,0,0,1.59-.38ZM61,12a11.55,11.55,0,0,1,5.69-4,39.78,39.78,0,0,1,12.2-1.91H94.72a.42.42,0,0,1,.42.36L96.4,24a.44.44,0,0,1-.39.46l-2.68.3-.74-11.22a2.17,2.17,0,1,0-4.33.28L89,25.23l-3.14.35-.8-12a2.17,2.17,0,1,0-4.33.28l.77,11.69-3.19-.4-.76-9.87a2.17,2.17,0,0,0-4.32.33l.68,9-2.37-.29-1-6.19a2.17,2.17,0,1,0-4.29.68l.59,3.7L57.1,17.1ZM15.87,92.33a9.79,9.79,0,1,1,9.79-9.79A9.81,9.81,0,0,1,15.87,92.33Zm75.87-.82C91.74,87,95.59,80,103.29,80c7.33,0,13.09,5.81,12.51,11.55-1,9.63-8,11.55-12.51,11.55S91.74,100.18,91.74,91.51Z"/><path class="cls-1" d="M110.33,91.41a6.64,6.64,0,1,1-6.63-6.63A6.65,6.65,0,0,1,110.33,91.41Z"/><path class="cls-2" d="M20.82,82.75A4.72,4.72,0,1,1,16.11,78,4.72,4.72,0,0,1,20.82,82.75Z"/></g></g></svg>