<svg xmlns="http://www.w3.org/2000/svg" viewBox="0 0 143.97 220.07"><defs><style>.cls-1{fill:#353535;}.cls-2{fill:#8cc63f;}</style></defs><g id="Layer_2" data-name="Layer 2"><g id="Capa_1" data-name="Capa 1"><path d="M22.06,210.4h1l.1.87h0a3.59,3.59,0,0,1,2.35-1c1.83,0,2.81,1.36,2.81,3.47,0,2.31-1.45,3.67-3.09,3.67a3.29,3.29,0,0,1-2-.88h0l0,1.28v2.3H22.06Zm5.06,3.3c0-1.5-.56-2.49-1.91-2.49a2.91,2.91,0,0,0-2,1v3.38a2.81,2.81,0,0,0,1.81.79C26.23,216.39,27.12,215.38,27.12,213.7Z"/><path d="M31.18,210.4h1l.11,1.61h0a3.56,3.56,0,0,1,3-1.78,2.87,2.87,0,0,1,1.35.28l-.27,1a3.52,3.52,0,0,0-1.26-.22,3.19,3.19,0,0,0-2.8,1.95v4H31.18Z"/><path d="M38.38,213.81a3.37,3.37,0,1,1,3.36,3.56A3.33,3.33,0,0,1,38.38,213.81Zm5.53,0c0-1.56-.87-2.61-2.17-2.61s-2.17,1.05-2.17,2.61.87,2.59,2.17,2.59S43.91,215.37,43.91,213.81Z"/><path d="M46.78,213.81a3.27,3.27,0,0,1,3.08-3.58,2.9,2.9,0,0,1,2,.87h0l-.06-1.25v-2.61H53v10h-1l-.1-.9h0a3.24,3.24,0,0,1-2.22,1.07C48,217.37,46.78,216.08,46.78,213.81Zm5.09,1.57V212a2.52,2.52,0,0,0-1.78-.78A2.32,2.32,0,0,0,48,213.8c0,1.62.75,2.59,2,2.59A2.57,2.57,0,0,0,51.87,215.38Z"/><path d="M55.41,214.62V210.4h1.16v4.07c0,1.27.45,1.89,1.57,1.89a2.69,2.69,0,0,0,2.11-1.25V210.4h1.16v6.8h-1l-.1-1.19h-.06a3.29,3.29,0,0,1-2.53,1.36C56.15,217.37,55.41,216.42,55.41,214.62Z"/><path d="M63.84,213.81a3.53,3.53,0,0,1,3.8-3.58,3.47,3.47,0,0,1,2.47,1l-.57.75a2.79,2.79,0,0,0-1.86-.77A2.5,2.5,0,0,0,65,213.81a2.47,2.47,0,0,0,2.62,2.59,3.26,3.26,0,0,0,2.1-.85l.52.75a4,4,0,0,1-2.7,1.07A3.44,3.44,0,0,1,63.84,213.81Z"/><path d="M72.24,213.81A3.53,3.53,0,0,1,76,210.23a3.48,3.48,0,0,1,2.48,1l-.58.75a2.77,2.77,0,0,0-1.86-.77,2.49,2.49,0,0,0-2.64,2.61A2.46,2.46,0,0,0,76,216.4a3.26,3.26,0,0,0,2.1-.85l.52.75a4,4,0,0,1-2.7,1.07A3.43,3.43,0,0,1,72.24,213.81Z"/><path d="M83.92,211.34H80.77v-.94h4.31v6.8H83.92Zm-.46-3.26a.92.92,0,1,1,.92.89A.87.87,0,0,1,83.46,208.08Z"/><path d="M88.74,213.81a3.37,3.37,0,1,1,3.36,3.56A3.33,3.33,0,0,1,88.74,213.81Zm5.53,0c0-1.56-.87-2.61-2.17-2.61s-2.17,1.05-2.17,2.61.87,2.59,2.17,2.59S94.27,215.37,94.27,213.81Z"/><path d="M97.6,210.4h1l.1,1.15h.06a3.48,3.48,0,0,1,2.56-1.32c1.61,0,2.35,1,2.35,2.74v4.23h-1.16v-4.07c0-1.29-.45-1.89-1.56-1.89a2.88,2.88,0,0,0-2.14,1.22v4.74H97.6Z"/><path d="M105.64,213.78a3.42,3.42,0,0,1,3.47-3.55,2.93,2.93,0,0,1,3.11,3.19,4.35,4.35,0,0,1-.06.7h-5.75v-.89h5.07l-.3.32c0-1.61-.79-2.41-2-2.41a2.39,2.39,0,0,0-2.35,2.64,2.47,2.47,0,0,0,2.66,2.66,3.73,3.73,0,0,0,2.07-.64l.42.76a4.72,4.72,0,0,1-2.63.81A3.45,3.45,0,0,1,105.64,213.78Z"/><path d="M114.08,216.3l.53-.77a4.85,4.85,0,0,0,3,.93c1.15,0,1.71-.48,1.71-1.05s-.27-.88-2.11-1.26-2.66-1-2.66-2,1-1.93,2.83-1.93a5.12,5.12,0,0,1,2.74.87l-.56.74a4.06,4.06,0,0,0-2.28-.71c-1.15,0-1.57.46-1.57,1s.59.84,2,1.13c2.25.49,2.8,1,2.8,2.1s-1.08,2-3,2A5.9,5.9,0,0,1,114.08,216.3Z"/><path class="cls-1" d="M13.09,162.26H0V136.08H8.73v4.36H26.18v8.73Zm-3.62-8.73,4.36-4.36H8.73v4.36Z"/><path class="cls-1" d="M39.26,162.26H30.54V136.08h8.72Z"/><path class="cls-1" d="M61.08,136.08l8.72,8.73v17.45H52.35l-8.72-8.73V136.08Zm0,17.45v-5.1l-3.62-3.62H52.35v5.1L56,153.53Z"/><path class="cls-1" d="M100.34,136.08v26.18H91.62V144.81h-.74l-8,8v9.47H74.17V136.08h8.72v4.36l4.36-4.36Z"/><path class="cls-1" d="M113.43,162.26h-8.72V136.08h8.72Z"/><path class="cls-1" d="M126.52,144.81v7.67l1,1.05H144v8.73H124l-6.16-6.15v-20H144v8.73Z"/><path class="cls-1" d="M24,197.16H15.27V171H24Z"/><path class="cls-1" d="M54.53,171v26.18H45.81V179.71h-.74l-8,8v9.47H28.36V171h8.72v4.36L41.45,171Z"/><path class="cls-1" d="M72,175.34h4.36V171h8.72v26.18H58.9v-8.73Zm4.36,13.09v-4.36h-.74l-4.37,4.36Z"/><path class="cls-1" d="M98.16,197.16H89.44V171h8.72Z"/><path class="cls-1" d="M128.7,197.16H102.52V171H120l8.72,8.73L120,188.43h8.72Zm-17.45-17.45v5.1l5.1-5.1Z"/><path class="cls-1" d="M109.34,67.39c-7.35,0-54.64,11.09-57.26,11.69L72.75,30.94a2.91,2.91,0,0,0,1.12.37l14.58,1.81a4.46,4.46,0,0,0,.73,0l4.46-.49a8,8,0,0,0,7.46,5.21,8.21,8.21,0,0,0,2-.24l2.53-.65a4.1,4.1,0,0,0,3-4.36s0-.06,0-.1l-.78-5.18a6.58,6.58,0,0,0,.39-2.85L106.91,6.23A6.78,6.78,0,0,0,100.18,0H83.71A47.71,47.71,0,0,0,69.1,2.29a18.35,18.35,0,0,0-9,6.36L13.4,70a16.48,16.48,0,0,0,7.77,32l20.38,17.67a3.16,3.16,0,0,0,2.07.77H97.86a27.75,27.75,0,1,0,11.48-53Zm-5.48-36.08.21,1.38-2.13.55a3.42,3.42,0,0,1-3.48-1.13l3.75-.41a7.11,7.11,0,0,0,1.65-.39ZM65.12,12.48A12,12,0,0,1,71,8.3a41.37,41.37,0,0,1,12.68-2h16.47a.43.43,0,0,1,.43.38L101.92,25a.43.43,0,0,1-.4.47l-2.78.31L98,14.08a2.25,2.25,0,1,0-4.5.29l.78,11.85L91,26.58l-.83-12.51a2.25,2.25,0,0,0-4.5.3l.8,12.14-3.32-.41-.79-10.25a2.25,2.25,0,1,0-4.49.34l.7,9.34-2.45-.3-1-6.44a2.25,2.25,0,1,0-4.45.71l.61,3.85L61.09,17.77ZM18.26,95.92A10.17,10.17,0,1,1,28.43,85.76,10.19,10.19,0,0,1,18.26,95.92Zm78.82-.84c0-4.65,4-12,12-12,7.62,0,13.6,6,13,12-1,10-8.34,12-13,12S97.08,104.08,97.08,95.08Z"/><path class="cls-1" d="M116.4,95a6.9,6.9,0,1,1-6.89-6.89A6.91,6.91,0,0,1,116.4,95Z"/><path class="cls-2" d="M23.4,86a4.9,4.9,0,1,1-4.9-4.89A4.9,4.9,0,0,1,23.4,86Z"/></g></g></svg>