<?xml version="1.0" encoding="UTF-8"?>
<svg id="Capa_2" data-name="Capa 2" xmlns="http://www.w3.org/2000/svg" viewBox="0 0 512 494.22">
  <defs>
    <style>
      .cls-1 {
        fill: #fff;
      }
    </style>
  </defs>
  <g id="Layer_1" data-name="Layer 1">
    <path class="cls-1" d="M508.14,110.03l-64.95-50.03c-2.08-1.61-4.73-2.32-7.33-1.98-2.61,.34-4.98,1.7-6.58,3.78l-31.25,40.57V9.92c0-5.48-4.44-9.92-9.92-9.92H118.13c-2.63,0-5.15,1.05-7.01,2.9L2.9,111.12c-1.86,1.86-2.9,4.38-2.9,7.01V484.3c0,5.48,4.44,9.92,9.92,9.92H388.11c5.48,0,9.92-4.44,9.92-9.92v-215.08l111.91-145.28c3.34-4.34,2.54-10.57-1.8-13.91Zm-69.2-28.27l16.76,12.91-149.3,193.81-16.76-12.91L438.94,81.76Zm-120.86,240.75l-30.96,7.25-.89-31.79,31.85,24.54ZM108.21,33.86V108.21H33.86L108.21,33.86ZM19.84,474.38V128.05H118.13c5.48,0,9.92-4.44,9.92-9.92V19.84h250.14v108.28l-110.32,143.2c-1.39,1.81-2.12,4.05-2.06,6.33l1.81,64.82c.08,2.98,1.5,5.76,3.86,7.58,1.75,1.35,3.89,2.06,6.05,2.06,.75,0,1.51-.09,2.26-.26l63.14-14.79c2.22-.52,4.2-1.79,5.59-3.6l29.65-38.49v179.41H19.84Zm319.04-160.88l-16.76-12.91L471.41,106.78l16.76,12.91-149.29,193.81Z"/>
    <path class="cls-1" d="M192.7,191.39c0-28.71-23.35-52.06-52.06-52.06s-52.06,23.35-52.06,52.06c0,26.01,19.18,47.63,44.13,51.45l7.5,77.47c.5,5.13,4.81,8.96,9.86,8.96,.32,0,.64-.02,.97-.05,5.45-.53,9.45-5.38,8.92-10.83l-7.39-76.35c22.97-5.41,40.13-26.06,40.13-50.66Zm-52.06,32.22c-17.77,0-32.22-14.45-32.22-32.22s14.46-32.22,32.22-32.22,32.22,14.45,32.22,32.22c0,17.77-14.45,32.22-32.22,32.22Z"/>
    <path class="cls-1" d="M116.37,261.83H63.47c-5.48,0-9.92,4.44-9.92,9.92s4.44,9.92,9.92,9.92h52.89c5.48,0,9.92-4.44,9.92-9.92,0-5.48-4.44-9.92-9.92-9.92Z"/>
    <path class="cls-1" d="M224.12,214.09c-4.09-3.64-10.36-3.27-14,.82l-42.32,47.61c-3.64,4.09-3.27,10.36,.82,14,1.89,1.68,4.24,2.51,6.58,2.51,2.74,0,5.46-1.12,7.42-3.33l42.32-47.61c3.64-4.09,3.27-10.36-.82-14Z"/>
    <path class="cls-1" d="M155.05,344.09c-5.32-1.28-10.68,2.01-11.96,7.33l-15.87,66.12c-1.28,5.33,2,10.68,7.33,11.96,.78,.19,1.56,.28,2.32,.28,4.48,0,8.54-3.06,9.64-7.61l15.87-66.12c1.28-5.33-2-10.68-7.33-11.96Z"/>
    <path class="cls-1" d="M255.41,360.94l-71.41-39.67c-4.79-2.66-10.83-.93-13.49,3.85-2.66,4.79-.93,10.83,3.85,13.49l71.41,39.67c1.53,.85,3.18,1.25,4.81,1.25,3.49,0,6.87-1.84,8.68-5.1,2.66-4.79,.93-10.83-3.85-13.49Z"/>
  </g>
</svg>