<?xml version="1.0" encoding="UTF-8"?>
<svg id="Capa_2" data-name="Capa 2" xmlns="http://www.w3.org/2000/svg" viewBox="0 0 502 476">
  <defs>
    <style>
      .cls-1 {
        fill: #fff;
      }
    </style>
  </defs>
  <g id="Layer_1" data-name="Layer 1">
    <g>
      <path class="cls-1" d="M393,138H178.75c-.98-3.83-2.5-7.43-4.48-10.74L386.3,53.22c5.21-1.82,7.96-7.52,6.14-12.74-1.82-5.21-7.52-7.97-12.74-6.14L157.73,111.85c-5.48-2.78-11.67-4.35-18.23-4.35-19.01,0-34.99,13.17-39.33,30.86C44.18,142.87,0,189.87,0,247v120c0,60.1,48.9,109,109,109H393c60.1,0,109-48.9,109-109v-120c0-60.1-48.9-109-109-109Zm-253.5-10.5c7.68,0,14.38,4.24,17.89,10.5h-35.78c3.51-6.26,10.22-10.5,17.89-10.5Zm342.5,239.5c0,49.08-39.92,89-89,89H109c-49.08,0-89-39.92-89-89v-120c0-49.07,39.92-89,89-89H393c49.08,0,89,39.93,89,89v120Z"/>
      <path class="cls-1" d="M332,179c-70.58,0-128,57.42-128,128s57.42,128,128,128,128-57.42,128-128-57.42-128-128-128Zm0,236c-33.34,0-63.19-15.19-83.02-39h166.04c-19.83,23.81-49.68,39-83.02,39Zm96.23-59H235.77c-6.23-12.18-10.21-25.7-11.39-40h188.62c5.52,0,10-4.48,10-10s-4.48-10-10-10H224.56c1.46-14.34,5.74-27.86,12.27-40h107.18c5.52,0,10-4.48,10-10s-4.48-10-10-10h-93.31c19.81-22.66,48.92-37,81.31-37,59.55,0,108,48.45,108,108,0,17.63-4.25,34.29-11.77,49Z"/>
      <path class="cls-1" d="M386,236h-7c-5.52,0-10,4.48-10,10s4.48,10,10,10h7c5.52,0,10-4.48,10-10s-4.48-10-10-10Z"/>
      <path class="cls-1" d="M97.5,227c-17.92,0-32.5,14.58-32.5,32.5s14.58,32.5,32.5,32.5,32.5-14.58,32.5-32.5-14.58-32.5-32.5-32.5Zm0,45c-6.89,0-12.5-5.61-12.5-12.5s5.61-12.5,12.5-12.5,12.5,5.61,12.5,12.5-5.61,12.5-12.5,12.5Z"/>
      <path class="cls-1" d="M97.5,322c-17.92,0-32.5,14.58-32.5,32.5s14.58,32.5,32.5,32.5,32.5-14.58,32.5-32.5-14.58-32.5-32.5-32.5Zm0,45c-6.89,0-12.5-5.61-12.5-12.5s5.61-12.5,12.5-12.5,12.5,5.61,12.5,12.5-5.61,12.5-12.5,12.5Z"/>
      <path class="cls-1" d="M428.5,55c15.16,0,27.5-12.34,27.5-27.5S443.66,0,428.5,0s-27.5,12.34-27.5,27.5,12.34,27.5,27.5,27.5Zm0-35c4.14,0,7.5,3.36,7.5,7.5s-3.36,7.5-7.5,7.5-7.5-3.36-7.5-7.5,3.36-7.5,7.5-7.5Z"/>
    </g>
  </g>
</svg>