<?xml version="1.0" encoding="UTF-8"?>
<svg id="Capa_2" data-name="Capa 2" xmlns="http://www.w3.org/2000/svg" viewBox="0 0 46 34">
  <defs>
    <style>
      .cls-1 {
        fill: #fff;
        fill-rule: evenodd;
      }
    </style>
  </defs>
  <g id="Layer_1" data-name="Layer 1">
    <path id="_24.TV" data-name=" 24.TV" class="cls-1" d="M45,30H1c-.55,0-1-.45-1-1V1C0,.45,.45,0,1,0H45c.55,0,1,.45,1,1V29c0,.55-.45,1-1,1Zm-1-28H2V28H44V2Zm-24,7c.2,0,.4,.08,.56,.2l7.77,4.87c.51,.17,.79,.72,.62,1.23-.06,.19-.19,.36-.36,.48l-7.97,4.98c-.17,.15-.39,.23-.62,.23-.55,0-1-.45-1-1V10c0-.55,.45-1,1-1Zm-6,23h18c.55,0,1,.45,1,1s-.45,1-1,1H14c-.55,0-1-.45-1-1s.45-1,1-1Z"/>
  </g>
</svg>