<?xml version="1.0" encoding="UTF-8"?>
<svg id="Capa_2" data-name="Capa 2" xmlns="http://www.w3.org/2000/svg" viewBox="0 0 27.96 29.06">
  <defs>
    <style>
      .cls-1 {
        fill: none;
        stroke: #fff;
        stroke-linecap: round;
        stroke-linejoin: round;
        stroke-width: 2px;
      }
    </style>
  </defs>
  <g id="Layer_1" data-name="Layer 1">
    <g>
      <path class="cls-1" d="M21,16H7.3c-3.3,0-6.2,2.5-6.3,5.8-.1,3.4,2.6,6.2,6,6.2,2.6,0,4.8-1.7,5.7-4,.2-.6,.7-1,1.3-1h0c.6,0,1.1,.4,1.3,1,.9,2.6,3.6,4.4,6.6,4,2.6-.4,4.7-2.6,5-5.2,.5-3.7-2.3-6.8-5.9-6.8Z"/>
      <line class="cls-1" x1="7" y1="20" x2="7" y2="24"/>
      <line class="cls-1" x1="5" y1="22" x2="9" y2="22"/>
      <path class="cls-1" d="M13,12v-1c0-1.1,.9-2,2-2h2c1.1,0,2-.9,2-2h0c0-1.1-.9-2-2-2h-2c-1.1,0-2-.9-2-2V1"/>
      <line class="cls-1" x1="11" y1="12" x2="15" y2="12"/>
      <line class="cls-1" x1="21" y1="20" x2="21" y2="20"/>
      <line class="cls-1" x1="21" y1="24" x2="21" y2="24"/>
      <line class="cls-1" x1="19" y1="22" x2="19" y2="22"/>
      <line class="cls-1" x1="23" y1="22" x2="23" y2="22"/>
    </g>
  </g>
</svg>